<svg width="450" height="90" viewBox="0 0 450 90" fill="none" xmlns="http://www.w3.org/2000/svg">
<rect width="45" height="45" fill="#395DCF"/>
<rect x="45" width="45" height="45" fill="#F9F8E8"/>
<rect x="180" width="45" height="45" fill="#395DCF"/>
<rect x="225" width="45" height="45" fill="#F9F8E8"/>
<rect x="270" width="45" height="45" fill="#395DCF"/>
<rect x="315" width="45" height="45" fill="#F9F8E8"/>
<rect x="360" width="45" height="45" fill="#395DCF"/>
<rect x="405" width="45" height="45" fill="#F9F8E8"/>
<rect x="90" width="45" height="45" fill="#395DCF"/>
<rect x="135" width="45" height="45" fill="#F9F8E8"/>
<rect x="45" y="45" width="45" height="45" fill="#395DCF"/>
<rect x="90" y="45" width="45" height="45" fill="#F9F8E8"/>
<rect y="45" width="45" height="45" fill="#F9F8E8"/>
<rect x="225" y="45" width="45" height="45" fill="#395DCF"/>
<rect x="270" y="45" width="45" height="45" fill="#F9F8E8"/>
<rect x="315" y="45" width="45" height="45" fill="#395DCF"/>
<rect x="360" y="45" width="45" height="45" fill="#F9F8E8"/>
<rect x="405" y="45" width="45" height="45" fill="#395DCF"/>
<rect x="135" y="45" width="45" height="45" fill="#395DCF"/>
<rect x="180" y="45" width="45" height="45" fill="#F9F8E8"/>
</svg>
