<svg width="130" height="100" viewBox="0 0 130 100" fill="none" xmlns="http://www.w3.org/2000/svg">
<path d="M31.5976 48.8993L7.92611 24.5421L8.03383 73.3607L31.5976 48.8993Z" fill="#86D2FF"/>
<path d="M25.0038 49.9841C25.0038 49.9841 50.6562 62.4899 84.6191 62.5593C118.582 62.6287 128.285 49.7562 128.285 49.7562C128.285 49.7562 118.509 29.5108 84.5461 29.4414C50.5831 29.3719 25.0038 49.9841 25.0038 49.9841Z" fill="#86D2FF"/>
<path d="M60.3646 21.3132L42.763 21.6636L51.1589 36.4358L78.9493 51.8521L88.155 36.7295L60.3646 21.3132Z" fill="#86D2FF"/>
<path d="M67.8376 59.9601L61.1476 68.4285L72.1981 69.5119L91.1621 61.6177L86.8016 52.0659L67.8376 59.9601Z" fill="#86D2FF"/>
<ellipse cx="2.46018" cy="2.34879" rx="2.46018" ry="2.34879" transform="matrix(-0.999998 0.00220652 0.00220652 0.999998 116.212 41.6663)" fill="black"/>
<path d="M98.2524 30.8964C97.8067 29.8021 93.6355 31.3132 94.8473 45.9428C96.0591 60.5724 100.336 61.6604 100.798 61.6255C101.478 60.113 98.2238 58.2924 96.6963 45.8029C96.3293 33.2488 98.6981 31.9908 98.2524 30.8964Z" fill="#86D2FF"/>
</svg>
