<svg width="132" height="102" viewBox="0 0 132 102" fill="none" xmlns="http://www.w3.org/2000/svg">
<path d="M32.555 49.3438L9.46262 24.4369L8.42266 73.2445L32.555 49.3438Z" fill="#FF4FA3"/>
<path d="M25.9375 50.2734C25.9375 50.2734 51.2888 63.3788 85.2407 64.2466C119.193 65.1144 129.195 52.4736 129.195 52.4736C129.195 52.4736 119.898 32.0039 85.9462 31.1361C51.9942 30.2683 25.9375 50.2734 25.9375 50.2734Z" fill="#FF4FA3"/>
<path d="M61.9625 22.4417L44.3575 22.3782L52.4039 37.3437L79.8242 53.4091L89.3828 38.507L61.9625 22.4417Z" fill="#FF4FA3"/>
<path d="M68.5249 61.2539L61.6377 69.5626L72.6597 70.9055L91.804 63.4593L87.6692 53.8076L68.5249 61.2539Z" fill="#FF4FA3"/>
<ellipse cx="2.46018" cy="2.34879" rx="2.46018" ry="2.34879" transform="matrix(-0.999773 -0.0213025 -0.0213025 0.999773 117.316 44.102)" fill="black"/>
<path d="M99.6146 32.913C99.1947 31.8085 94.9891 33.2211 95.8567 47.8752C96.7242 62.5292 100.974 63.7175 101.437 63.6934C102.152 62.1974 98.942 60.3008 97.7084 47.7787C97.6367 35.2196 100.034 34.0176 99.6146 32.913Z" fill="#FF4FA3"/>
</svg>
