<svg width="191" height="145" viewBox="0 0 191 145" fill="none" xmlns="http://www.w3.org/2000/svg">
<path d="M144.375 71.3051L179.344 35.554V107.056L144.375 71.3051Z" fill="#395DCF"/>
<path d="M154.141 72.8727C154.141 72.8727 116.201 91.2721 65.915 91.4835C15.6291 91.6949 1.22119 72.8726 1.22119 72.8726C1.22119 72.8726 15.6291 43.1887 65.915 42.9773C116.201 42.7658 154.141 72.8727 154.141 72.8727Z" fill="#395DCF"/>
<path d="M101.692 30.9942L127.754 31.4506L115.371 53.1137L74.2748 75.7829L60.5953 53.6634L101.692 30.9942Z" fill="#395DCF"/>
<path d="M90.7535 87.6225L100.686 100.004L84.3284 101.626L56.2242 90.1255L62.6494 76.1215L90.7535 87.6225Z" fill="#395DCF"/>
<ellipse cx="22.7125" cy="64.425" rx="3.64259" ry="3.44015" fill="black"/>
<path d="M45.6258 45.153C46.2822 43.5487 52.463 45.7485 50.7167 67.1795C48.9703 88.6106 42.6415 90.2179 41.9576 90.1682C40.9461 87.9553 45.7576 85.2782 47.9786 66.9805C48.4808 48.5922 44.9695 46.7573 45.6258 45.153Z" fill="#F9F8E8"/>
</svg>
