<svg width="135" height="134" viewBox="0 0 135 134" fill="none" xmlns="http://www.w3.org/2000/svg">
<path d="M117.512 34.4495C117.512 53.4396 97.7972 53.4873 68.7384 53.4873C39.6795 53.4873 21.4886 53.4396 21.4886 34.4495C21.4886 15.4593 39.6795 0 68.7384 0C97.7972 0 117.512 15.4593 117.512 34.4495Z" fill="#FF4FA3"/>
<path d="M33.6309 46.9724C34.3989 52.6489 34.614 148.031 1.53121 126.771" stroke="#FF4FA3" stroke-width="5"/>
<path d="M101.306 46.9724C100.538 52.6489 100.322 148.031 133.405 126.771" stroke="#FF4FA3" stroke-width="5"/>
<path d="M44.8191 50.4862C39.8392 82.2537 48.0733 130.552 27.7325 130.856" stroke="#FF4FA3" stroke-width="5"/>
<path d="M89.6094 49.5799C94.5893 81.3475 86.3551 129.646 106.696 129.95" stroke="#FF4FA3" stroke-width="5"/>
<path d="M57.0529 53.0342C58.0363 90.4658 62.2409 113.67 57.0529 131.452" stroke="#FF4FA3" stroke-width="5"/>
<path d="M75.3435 52.5806C74.3601 90.0122 70.1554 113.216 75.3435 130.998" stroke="#FF4FA3" stroke-width="5"/>
<ellipse cx="51.2106" cy="18.8111" rx="4.31853" ry="5.66603" fill="black"/>
<ellipse cx="80.1703" cy="18.8111" rx="4.31853" ry="5.66603" fill="black"/>
<path d="M71.7868 30.37C72.2131 30.716 71.7614 34.9028 66.1981 34.9028C60.6349 34.9028 60.1014 30.8228 60.1014 30.37C60.6535 29.5854 61.4346 32.6092 66.1981 33.0897C70.9528 32.4339 71.3605 30.024 71.7868 30.37Z" fill="black"/>
<ellipse cx="52.2268" cy="16.318" rx="2.28628" ry="1.81313" fill="white"/>
<ellipse cx="52.2268" cy="16.318" rx="2.28628" ry="1.81313" fill="white"/>
<ellipse cx="80.6776" cy="16.318" rx="2.28628" ry="1.81313" fill="white"/>
<ellipse cx="80.6776" cy="16.318" rx="2.28628" ry="1.81313" fill="white"/>
</svg>
