<svg width="172" height="159" viewBox="0 0 172 159" fill="none" xmlns="http://www.w3.org/2000/svg">
<path d="M21.6684 41.2195C21.6684 63.9844 46.6513 64.1192 83.6708 64.1192C120.69 64.1192 143.998 63.9844 143.998 41.2195C143.998 18.4546 120.69 0 83.6708 0C46.6513 0 21.6684 18.4546 21.6684 41.2195Z" fill="#FF0000"/>
<path d="M128.799 56.0993C127.773 62.9135 126.917 177.256 169.692 151.596" stroke="#FF0000" stroke-width="5"/>
<path d="M42.4406 56.2399C43.4669 63.0541 44.3224 177.397 1.54767 151.737" stroke="#FF0000" stroke-width="5"/>
<path d="M114.396 60.2943C120.744 98.3025 109.696 156.149 136.177 156.451" stroke="#FF0000" stroke-width="5"/>
<path d="M57.5689 59.3783C51.2207 97.3865 62.2683 155.233 35.7875 155.535" stroke="#FF0000" stroke-width="5"/>
<path d="M98.7524 63.6611C97.476 108.478 92.019 136.26 98.7524 157.55" stroke="#FF0000" stroke-width="5"/>
<path d="M75.9053 63.2031C77.1817 108.02 82.6387 135.802 75.9053 157.092" stroke="#FF0000" stroke-width="5"/>
<ellipse cx="5.58581" cy="6.86991" rx="5.58581" ry="6.86991" transform="matrix(-1 0 0 1 111.6 15.5718)" fill="black"/>
<ellipse cx="5.58581" cy="6.86991" rx="5.58581" ry="6.86991" transform="matrix(-1 0 0 1 74.7334 15.5718)" fill="black"/>
<path d="M80.3379 36.7101C79.7486 37.2189 79.6098 41.6775 87.3 41.6775C94.9902 41.6775 94.8423 37.3758 94.8423 36.7099C94.0791 35.5563 93.8847 39.1391 87.3 39.8456C80.7275 38.8814 80.9272 36.2013 80.3379 36.7101Z" fill="black"/>
<ellipse cx="2.7929" cy="2.28997" rx="2.7929" ry="2.28997" transform="matrix(-1 0 0 1 108.248 17.4038)" fill="white"/>
<ellipse cx="2.7929" cy="2.28997" rx="2.7929" ry="2.28997" transform="matrix(-1 0 0 1 108.248 17.4038)" fill="white"/>
<ellipse cx="2.7929" cy="2.28997" rx="2.7929" ry="2.28997" transform="matrix(-1 0 0 1 71.3819 17.4038)" fill="white"/>
<ellipse cx="2.7929" cy="2.28997" rx="2.7929" ry="2.28997" transform="matrix(-1 0 0 1 71.3819 17.4038)" fill="white"/>
<path d="M21.6684 41.2195C21.6684 63.9844 46.6513 64.1192 83.6708 64.1192C120.69 64.1192 143.998 63.9844 143.998 41.2195C143.998 18.4546 120.69 0 83.6708 0C46.6513 0 21.6684 18.4546 21.6684 41.2195Z" fill="#FF4FA3"/>
<path d="M128.799 56.0993C127.773 62.9135 126.917 177.256 169.692 151.596" stroke="#FF4FA3" stroke-width="5"/>
<path d="M42.4406 56.2399C43.4669 63.0541 44.3224 177.397 1.54767 151.737" stroke="#FF4FA3" stroke-width="5"/>
<path d="M114.396 60.2943C120.744 98.3025 109.696 156.149 136.177 156.451" stroke="#FF4FA3" stroke-width="5"/>
<path d="M57.5689 59.3783C51.2207 97.3865 62.2683 155.233 35.7875 155.535" stroke="#FF4FA3" stroke-width="5"/>
<path d="M98.7524 63.6611C97.476 108.478 92.019 136.26 98.7524 157.55" stroke="#FF4FA3" stroke-width="5"/>
<path d="M75.9053 63.2031C77.1817 108.02 82.6387 135.802 75.9053 157.092" stroke="#FF4FA3" stroke-width="5"/>
<ellipse cx="5.58581" cy="6.86991" rx="5.58581" ry="6.86991" transform="matrix(-1 0 0 1 111.6 15.5718)" fill="black"/>
<ellipse cx="5.58581" cy="6.86991" rx="5.58581" ry="6.86991" transform="matrix(-1 0 0 1 74.7334 15.5718)" fill="black"/>
<path d="M80.3379 36.7101C79.7486 37.2189 79.6098 41.6775 87.3 41.6775C94.9902 41.6775 94.8423 37.3758 94.8423 36.7099C94.0791 35.5563 93.8847 39.1391 87.3 39.8456C80.7275 38.8814 80.9272 36.2013 80.3379 36.7101Z" fill="black"/>
<ellipse cx="2.7929" cy="2.28997" rx="2.7929" ry="2.28997" transform="matrix(-1 0 0 1 108.248 17.4038)" fill="white"/>
<ellipse cx="2.7929" cy="2.28997" rx="2.7929" ry="2.28997" transform="matrix(-1 0 0 1 108.248 17.4038)" fill="white"/>
<ellipse cx="2.7929" cy="2.28997" rx="2.7929" ry="2.28997" transform="matrix(-1 0 0 1 71.3819 17.4038)" fill="white"/>
<ellipse cx="2.7929" cy="2.28997" rx="2.7929" ry="2.28997" transform="matrix(-1 0 0 1 71.3819 17.4038)" fill="white"/>
</svg>
