<svg width="103" height="93" viewBox="0 0 103 93" fill="none" xmlns="http://www.w3.org/2000/svg">
<path d="M13.4684 23.591C13.4684 36.62 28.2513 36.6972 50.1563 36.6972C72.0613 36.6972 85.8526 36.62 85.8526 23.591C85.8526 10.5621 72.0613 0 50.1563 0C28.2513 0 13.4684 10.5621 13.4684 23.591Z" fill="#FF0000"/>
<path d="M76.8595 32.1071C76.2522 36.0071 75.746 101.448 101.056 86.7625" stroke="#FF0000" stroke-width="5"/>
<path d="M25.7597 32.1877C26.367 36.0876 26.8732 101.529 1.56272 86.8431" stroke="#FF0000" stroke-width="5"/>
<path d="M68.3367 34.5081C72.0931 56.2611 65.556 89.3683 81.2252 89.5409" stroke="#FF0000" stroke-width="5"/>
<path d="M34.7114 33.9839C30.955 55.737 37.4921 88.8441 21.8229 89.0167" stroke="#FF0000" stroke-width="5"/>
<path d="M59.0803 36.4351C58.3251 62.0847 55.096 77.9852 59.0803 90.1702" stroke="#FF0000" stroke-width="5"/>
<path d="M43.0625 36.2461C43.4388 49.0268 44.4487 59.7283 44.8418 68.2051C45.2438 76.874 45.026 83.502 43.1855 89.1309L45.5615 89.9082L47.9375 90.6846C50.0811 84.1286 50.2412 76.7133 49.8359 67.9736C49.4218 59.0417 48.4395 48.9681 48.0605 36.0996L43.0625 36.2461ZM56.7666 21.0098C56.3151 20.3502 56.1996 22.4004 52.3037 22.8047C48.4164 22.2531 48.5327 20.7203 48.1846 21.0098C47.8359 21.301 47.7533 23.8535 52.3037 23.8535C56.8541 23.8535 56.7666 21.3909 56.7666 21.0098ZM63.377 8.91211C61.5517 8.91222 60.0724 10.6724 60.0723 12.8438C60.0723 15.0152 61.5516 16.7753 63.377 16.7754C65.2024 16.7754 66.6826 15.0152 66.6826 12.8438C66.6825 10.6723 65.2023 8.91211 63.377 8.91211ZM41.5625 8.91211C39.7372 8.91221 38.2579 10.6724 38.2578 12.8438C38.2578 15.0152 39.7372 16.7753 41.5625 16.7754C43.3879 16.7754 44.8682 15.0152 44.8682 12.8438C44.8681 10.6723 43.3879 8.91211 41.5625 8.91211Z" fill="white"/>
<path d="M43.0625 36.2461C43.4388 49.0268 44.4487 59.7283 44.8418 68.2051C45.2438 76.874 45.026 83.502 43.1855 89.1309L45.5615 89.9082L47.9375 90.6846C50.0811 84.1286 50.2412 76.7133 49.8359 67.9736C49.4218 59.0417 48.4395 48.9681 48.0605 36.0996L43.0625 36.2461ZM56.7666 21.0098C56.3151 20.3502 56.1996 22.4004 52.3037 22.8047C48.4164 22.2531 48.5327 20.7203 48.1846 21.0098C47.8359 21.301 47.7533 23.8535 52.3037 23.8535C56.8541 23.8535 56.7666 21.3909 56.7666 21.0098ZM63.377 8.91211C61.5517 8.91222 60.0724 10.6724 60.0723 12.8438C60.0723 15.0152 61.5516 16.7753 63.377 16.7754C65.2024 16.7754 66.6826 15.0152 66.6826 12.8438C66.6825 10.6723 65.2023 8.91211 63.377 8.91211ZM41.5625 8.91211C39.7372 8.91221 38.2579 10.6724 38.2578 12.8438C38.2578 15.0152 39.7372 16.7753 41.5625 16.7754C43.3879 16.7754 44.8682 15.0152 44.8682 12.8438C44.8681 10.6723 43.3879 8.91211 41.5625 8.91211Z" fill="white"/>
<path d="M50.1562 0C28.2514 8.58366e-06 13.4689 10.562 13.4688 23.5908C13.4688 30.0028 17.0493 33.2764 23.2969 34.9492C23.3535 37.0393 23.3603 40.4416 23.1904 44.6152C22.9303 51.0087 22.2659 58.9706 20.8164 66.3184C19.3408 73.7986 17.1365 80.1542 14.1162 83.7168C12.6762 85.4153 11.2264 86.2756 9.7207 86.5205C8.15891 86.7745 6.0053 86.4544 3.125 84.7832L0 88.9023C3.44721 90.9025 6.81567 91.7517 10.0684 91.2227C13.3766 90.6845 16.0346 88.8098 18.0967 86.3779C22.0808 81.6788 24.4586 74.1838 25.9443 66.6523C27.4561 58.9883 28.1333 50.7762 28.3984 44.2617C28.53 41.0294 28.5632 38.1523 28.5391 35.9365C29.5926 36.0707 30.6936 36.1815 31.8398 36.2725C31.1751 41.215 30.9371 46.5561 30.8008 51.8037C30.6385 58.0494 30.6161 64.1146 30.2246 69.5479C29.8299 75.0247 29.0782 79.4479 27.6514 82.4482C26.9566 83.9092 26.1639 84.8954 25.3018 85.5215C24.4708 86.1247 23.4068 86.5169 21.9277 86.5332L21.8232 89.0176L21.7178 91.5C24.1558 91.4731 26.3163 90.793 28.1416 89.4678C29.9353 88.1654 31.2322 86.3668 32.1865 84.3604C34.0581 80.425 34.8449 75.1787 35.2441 69.6387C35.6465 64.0547 35.6729 57.753 35.8311 51.668C35.9683 46.3846 36.2063 41.2225 36.8428 36.5498C38.8223 36.6201 40.9036 36.6556 43.0771 36.6748C43.4631 49.2662 44.4531 59.8232 44.8418 68.2051C45.2438 76.874 45.026 83.502 43.1855 89.1309L45.5615 89.9082L47.9375 90.6846C50.0811 84.1286 50.2412 76.7133 49.8359 67.9736C49.4282 59.1798 48.4712 49.2793 48.0801 36.6943C48.7647 36.6949 49.4568 36.6973 50.1562 36.6973C52.3802 36.6973 54.5205 36.6948 56.5713 36.6797C56.1857 49.3964 55.2164 59.3781 54.8057 68.2363C54.4004 76.9759 54.5605 84.3914 56.7041 90.9473L59.0801 90.1709L61.4561 89.3936C59.6156 83.7648 59.3979 77.1365 59.7998 68.4678C60.1919 60.0122 61.1976 49.3427 61.5762 36.6045C63.1554 36.5638 64.6688 36.5021 66.1133 36.418C66.8198 41.2613 67.073 46.6597 67.2168 52.1914C67.3749 58.2764 67.4014 64.5782 67.8037 70.1621C68.203 75.7023 68.9897 80.9494 70.8613 84.8848C71.8156 86.891 73.1128 88.6889 74.9062 89.9912C76.7315 91.3164 78.8921 91.9975 81.3301 92.0244L81.2256 89.541L81.1201 87.0576C79.6412 87.0413 78.5779 86.649 77.7471 86.0459C76.8847 85.4198 76.0924 84.4329 75.3975 82.9717C73.9707 79.9713 73.2179 75.549 72.8232 70.0723C72.4317 64.639 72.4103 58.5738 72.248 52.3281C72.1042 46.7911 71.8481 41.1496 71.0957 35.9824C72.1437 35.8517 73.1417 35.6966 74.0879 35.5137C74.0564 37.7716 74.0823 40.7793 74.2207 44.1807C74.4858 50.6953 75.1639 58.9081 76.6758 66.5723C78.1615 74.1035 80.5384 81.5979 84.5225 86.2969C86.5845 88.7289 89.2424 90.6033 92.5508 91.1416C95.8035 91.6707 99.1719 90.8215 102.619 88.8213L99.4941 84.7031C96.6138 86.3743 94.4602 86.6935 92.8984 86.4395C91.3928 86.1945 89.9429 85.3351 88.5029 83.6367C85.4825 80.0742 83.2784 73.7178 81.8027 66.2373C80.3533 58.8896 79.6889 50.9277 79.4287 44.5342C79.2308 39.671 79.273 35.8553 79.3545 33.9424C83.5579 32.064 85.8525 28.905 85.8525 23.5908C85.8524 10.562 72.0611 0 50.1562 0Z" fill="#395DCF"/>
<ellipse cx="3.30521" cy="3.93184" rx="3.30521" ry="3.93184" transform="matrix(-1 0 0 1 66.6823 8.91211)" fill="black"/>
<ellipse cx="3.30521" cy="3.93184" rx="3.30521" ry="3.93184" transform="matrix(-1 0 0 1 44.8679 8.91211)" fill="black"/>
<path d="M48.1841 21.0102C47.8354 21.3013 47.7533 23.8532 52.3037 23.8532C56.8541 23.8532 56.7666 21.3912 56.7666 21.0101C56.3151 20.3498 56.2 22.4003 52.3037 22.8047C48.4147 22.2528 48.5328 20.719 48.1841 21.0102Z" fill="black"/>
<ellipse cx="1.65261" cy="1.31061" rx="1.65261" ry="1.31061" transform="matrix(-1 0 0 1 64.6992 9.96069)" fill="white"/>
<ellipse cx="1.65261" cy="1.31061" rx="1.65261" ry="1.31061" transform="matrix(-1 0 0 1 64.6992 9.96069)" fill="white"/>
<ellipse cx="1.65261" cy="1.31061" rx="1.65261" ry="1.31061" transform="matrix(-1 0 0 1 42.8848 9.96069)" fill="white"/>
<ellipse cx="1.65261" cy="1.31061" rx="1.65261" ry="1.31061" transform="matrix(-1 0 0 1 42.8848 9.96069)" fill="white"/>
</svg>
