<svg width="219" height="259" viewBox="0 0 219 259" fill="none" xmlns="http://www.w3.org/2000/svg">
<path d="M183.9 93.1274C183.9 125.17 153.408 125.25 108.465 125.25C63.5213 125.25 35.3867 125.17 35.3867 93.1274C35.3867 61.0849 63.5213 35 108.465 35C153.408 35 183.9 61.0849 183.9 93.1274Z" fill="#FF8686"/>
<path d="M54.1661 114.258C55.3538 123.836 55.6866 284.777 4.51966 248.904" stroke="#FF8686" stroke-width="5"/>
<path d="M158.834 114.258C157.646 123.836 157.313 284.777 208.48 248.904" stroke="#FF8686" stroke-width="5"/>
<path d="M71.4704 120.187C63.7683 173.789 76.5036 255.285 45.0438 255.797" stroke="#FF8686" stroke-width="5"/>
<path d="M140.744 118.658C148.447 172.26 135.711 253.755 167.171 254.268" stroke="#FF8686" stroke-width="5"/>
<path d="M90.3916 124.485C91.9126 187.645 98.4156 226.798 90.3916 256.802" stroke="#FF8686" stroke-width="5"/>
<path d="M118.68 123.721C117.159 186.88 110.656 226.033 118.68 256.037" stroke="#FF8686" stroke-width="5"/>
<ellipse cx="81.3549" cy="66.7401" rx="6.67917" ry="9.56043" fill="black"/>
<ellipse cx="126.145" cy="66.7401" rx="6.67917" ry="9.56043" fill="black"/>
<path d="M94.8205 93.7565C94.1611 93.1727 94.8598 86.1082 103.464 86.1082C112.068 86.1082 112.894 92.9924 112.894 93.7565C112.04 95.0803 110.832 89.9782 103.464 89.1675C96.1104 90.274 95.4799 94.3404 94.8205 93.7565Z" fill="black"/>
<ellipse cx="82.9267" cy="62.5339" rx="3.53603" ry="3.05934" fill="white"/>
<ellipse cx="82.9267" cy="62.5339" rx="3.53603" ry="3.05934" fill="white"/>
<ellipse cx="126.931" cy="62.5339" rx="3.53603" ry="3.05934" fill="white"/>
<ellipse cx="126.931" cy="62.5339" rx="3.53603" ry="3.05934" fill="white"/>
<path d="M10.2553 62.7999L53.3363 58.4376L35.5736 97.928L10.2553 62.7999Z" fill="#FF8686"/>
<path d="M30.8227 30.1035L72.4119 42.1592L41.1768 72.1487L30.8227 30.1035Z" fill="#FF8686"/>
<path d="M71.7826 7.70676L103.938 36.7068L62.7457 50.0546L71.7826 7.70676Z" fill="#FF8686"/>
<path d="M113.903 0.961058L134.096 39.2656L90.8272 37.601L113.903 0.961058Z" fill="#FF8686"/>
<path d="M155.75 11.6466L163.095 54.3204L122.466 39.3441L155.75 11.6466Z" fill="#FF8686"/>
<path d="M189.865 35.5742L181.212 78.0022L148.795 49.2948L189.865 35.5742Z" fill="#FF8686"/>
<path d="M207.886 67.6184L183.181 103.18L164.736 64.0042L207.886 67.6184Z" fill="#FF8686"/>
</svg>
