<svg width="274" height="252" viewBox="0 0 274 252" fill="none" xmlns="http://www.w3.org/2000/svg">
<path d="M138.618 44.6273L140.84 46.5692L158.152 35.7186L151.801 52.6889L150.825 55.2979L152.912 57.1232L166.616 69.1028L149.448 67.4242L146.398 67.1251L145.319 70.0122L139.236 86.2634L134.609 68.5951L133.903 65.9037L131.147 65.6337L113.219 63.8808L130.531 53.0302L129.781 50.1662L125.273 32.961L138.618 44.6273Z" fill="#2946A2" stroke="#F9F8E8" stroke-width="8"/>
<path d="M215.618 97.6273L217.84 99.5692L235.152 88.7186L228.801 105.689L227.825 108.298L229.912 110.123L243.616 122.103L226.448 120.424L223.398 120.125L222.319 123.012L216.236 139.263L211.609 121.595L210.903 118.904L208.147 118.634L190.219 116.881L207.531 106.03L206.781 103.166L202.273 85.961L215.618 97.6273Z" fill="#2946A2" stroke="#F9F8E8" stroke-width="8"/>
<path d="M170.618 180.627L172.84 182.569L190.152 171.719L183.801 188.689L182.825 191.298L184.912 193.123L198.616 205.103L181.448 203.424L178.398 203.125L177.319 206.012L171.236 222.263L166.609 204.595L165.903 201.904L163.147 201.634L145.219 199.881L162.531 189.03L161.781 186.166L157.273 168.961L170.618 180.627Z" fill="#2946A2" stroke="#F9F8E8" stroke-width="8"/>
<path d="M80.6182 169.627L82.8397 171.569L100.152 160.719L93.8009 177.689L92.8251 180.298L94.9125 182.123L108.616 194.103L91.4481 192.424L88.3985 192.125L87.319 195.012L81.2363 211.263L76.6088 193.595L75.9033 190.904L73.1473 190.634L55.2187 188.881L72.5311 178.03L71.7808 175.166L67.2732 157.961L80.6182 169.627Z" fill="#2946A2" stroke="#F9F8E8" stroke-width="8"/>
<path d="M136.618 116.627L138.84 118.569L156.152 107.719L149.801 124.689L148.825 127.298L150.912 129.123L164.616 141.103L147.448 139.424L144.398 139.125L143.319 142.012L137.236 158.263L132.609 140.595L131.903 137.904L129.147 137.634L111.219 135.881L128.531 125.03L127.781 122.166L123.273 104.961L136.618 116.627Z" fill="#2946A2" stroke="#F9F8E8" stroke-width="8"/>
<path d="M54.6182 83.6273L56.8397 85.5692L74.152 74.7186L67.8009 91.6889L66.8251 94.2979L68.9125 96.1232L82.6165 108.103L65.4481 106.424L62.3985 106.125L61.319 109.012L55.2363 125.263L50.6088 107.595L49.9033 104.904L47.1473 104.634L29.2187 102.881L46.5311 92.0302L45.7808 89.1662L41.2732 71.961L54.6182 83.6273Z" fill="#2946A2" stroke="#F9F8E8" stroke-width="8"/>
</svg>
