<svg width="120" height="105" viewBox="0 0 120 105" fill="none" xmlns="http://www.w3.org/2000/svg">
<g filter="url(#filter0_f_140_661)">
<circle cx="60" cy="52" r="50" fill="url(#paint0_radial_140_661)"/>
</g>
<g filter="url(#filter1_f_140_661)">
<path d="M109.91 42C109.969 42.9925 110 43.9927 110 45C110 72.6142 87.6142 95 60 95C32.3858 95 10 72.6142 10 45C10 43.9928 10.0301 42.9925 10.0889 42C11.6404 68.2175 33.393 89 60 89C86.607 89 108.359 68.2175 109.91 42Z" fill="url(#paint1_radial_140_661)"/>
</g>
<g filter="url(#filter2_f_140_661)">
<ellipse cx="41.3318" cy="28.4825" rx="5.95264" ry="12.4459" transform="rotate(37.8015 41.3318 28.4825)" fill="white"/>
</g>
<defs>
<filter id="filter0_f_140_661" x="8" y="0" width="104" height="104" filterUnits="userSpaceOnUse" color-interpolation-filters="sRGB">
<feFlood flood-opacity="0" result="BackgroundImageFix"/>
<feBlend mode="normal" in="SourceGraphic" in2="BackgroundImageFix" result="shape"/>
<feGaussianBlur stdDeviation="1" result="effect1_foregroundBlur_140_661"/>
</filter>
<filter id="filter1_f_140_661" x="0" y="32" width="120" height="73" filterUnits="userSpaceOnUse" color-interpolation-filters="sRGB">
<feFlood flood-opacity="0" result="BackgroundImageFix"/>
<feBlend mode="normal" in="SourceGraphic" in2="BackgroundImageFix" result="shape"/>
<feGaussianBlur stdDeviation="5" result="effect1_foregroundBlur_140_661"/>
</filter>
<filter id="filter2_f_140_661" x="24.3687" y="9.99072" width="33.9262" height="36.9836" filterUnits="userSpaceOnUse" color-interpolation-filters="sRGB">
<feFlood flood-opacity="0" result="BackgroundImageFix"/>
<feBlend mode="normal" in="SourceGraphic" in2="BackgroundImageFix" result="shape"/>
<feGaussianBlur stdDeviation="4" result="effect1_foregroundBlur_140_661"/>
</filter>
<radialGradient id="paint0_radial_140_661" cx="0" cy="0" r="1" gradientUnits="userSpaceOnUse" gradientTransform="translate(60 52) rotate(90) scale(50)">
<stop stop-color="#D9D9D9" stop-opacity="0"/>
<stop offset="0.75" stop-color="#D9D9D9" stop-opacity="0"/>
<stop offset="1" stop-color="#EAEAEA"/>
</radialGradient>
<radialGradient id="paint1_radial_140_661" cx="0" cy="0" r="1" gradientUnits="userSpaceOnUse" gradientTransform="translate(60 45) rotate(90) scale(50 50)">
<stop stop-color="#D9D9D9" stop-opacity="0"/>
<stop offset="0.75" stop-color="#D9D9D9" stop-opacity="0"/>
<stop offset="1" stop-color="#EAEAEA"/>
</radialGradient>
</defs>
</svg>
