<svg width="129" height="99" viewBox="0 0 129 99" fill="none" xmlns="http://www.w3.org/2000/svg">
<path d="M31.4902 48.6844L7.87254 24.275L7.87254 73.0937L31.4902 48.6844Z" fill="#FF4FA3"/>
<path d="M24.8941 49.7544C24.8941 49.7544 50.5188 62.3168 84.4815 62.4611C118.444 62.6055 128.175 49.7544 128.175 49.7544C128.175 49.7544 118.444 29.4875 84.4815 29.3431C50.5188 29.1987 24.8941 49.7544 24.8941 49.7544Z" fill="#FF4FA3"/>
<path d="M60.318 21.1617L42.7157 21.4733L51.079 36.2639L78.8354 51.7415L88.0744 36.6392L60.318 21.1617Z" fill="#FF4FA3"/>
<path d="M67.7057 59.8249L60.9971 68.2785L72.0452 69.3863L91.0265 61.5339L86.6871 51.9725L67.7057 59.8249Z" fill="#FF4FA3"/>
<ellipse cx="2.46018" cy="2.34879" rx="2.46018" ry="2.34879" transform="matrix(-1 0 0 1 116.12 41.6379)" fill="black"/>
<path d="M98.1846 30.8286C97.7413 29.7332 93.5668 31.2352 94.7463 45.8674C95.9258 60.4997 100.2 61.5971 100.662 61.5632C101.345 60.0522 98.0956 58.2245 96.5956 45.7315C96.2564 33.1767 98.6279 31.9239 98.1846 30.8286Z" fill="#F9F8E8"/>
</svg>
