<svg width="135" height="134" viewBox="0 0 135 134" fill="none" xmlns="http://www.w3.org/2000/svg">
<path d="M117.513 34.4495C117.513 53.4396 97.7975 53.4873 68.7387 53.4873C39.6798 53.4873 21.4889 53.4396 21.4889 34.4495C21.4889 15.4593 39.6798 0 68.7387 0C97.7975 0 117.513 15.4593 117.513 34.4495Z" fill="#F9F8E8"/>
<path d="M33.6309 46.9725C34.3989 52.649 34.614 148.031 1.5312 126.771" stroke="#F9F8E8" stroke-width="5"/>
<path d="M101.306 46.9725C100.538 52.649 100.323 148.031 133.406 126.771" stroke="#F9F8E8" stroke-width="5"/>
<path d="M44.819 50.4864C39.8391 82.254 48.0733 130.553 27.7325 130.856" stroke="#F9F8E8" stroke-width="5"/>
<path d="M89.6095 49.5799C94.5894 81.3475 86.3552 129.646 106.696 129.95" stroke="#F9F8E8" stroke-width="5"/>
<path d="M57.0531 53.0341C58.0366 90.4657 62.2412 113.67 57.0531 131.452" stroke="#F9F8E8" stroke-width="5"/>
<path d="M75.3434 52.5808C74.3599 90.0124 70.1553 113.217 75.3434 130.999" stroke="#F9F8E8" stroke-width="5"/>
<ellipse cx="51.2103" cy="18.8112" rx="4.31853" ry="5.66603" fill="black"/>
<ellipse cx="80.1699" cy="18.8112" rx="4.31853" ry="5.66603" fill="black"/>
<path d="M71.7866 30.3699C72.213 30.7159 71.7612 34.9027 66.198 34.9027C60.6347 34.9027 60.1012 30.8227 60.1012 30.3699C60.6533 29.5853 61.4344 32.6091 66.198 33.0896C70.9527 32.4338 71.3603 30.0238 71.7866 30.3699Z" fill="black"/>
<ellipse cx="52.2264" cy="16.3183" rx="2.28628" ry="1.81313" fill="white"/>
<ellipse cx="52.2264" cy="16.3183" rx="2.28628" ry="1.81313" fill="white"/>
<ellipse cx="80.678" cy="16.3183" rx="2.28628" ry="1.81313" fill="white"/>
<ellipse cx="80.678" cy="16.3183" rx="2.28628" ry="1.81313" fill="white"/>
</svg>
